<?xml version="1.0" encoding="UTF-8"?>
<svg version="1.1" xmlns="http://www.w3.org/2000/svg" width="223" height="177">
<path d="M0 0 C3.3 0 6.6 0 10 0 C10 2.97 10 5.94 10 9 C12.64 9 15.28 9 18 9 C18 6.03 18 3.06 18 0 C21.3 0 24.6 0 28 0 C28 2.97 28 5.94 28 9 C30.64 9 33.28 9 36 9 C36 6.03 36 3.06 36 0 C39.3 0 42.6 0 46 0 C46 2.97 46 5.94 46 9 C48.64 9 51.28 9 54 9 C54 6.03 54 3.06 54 0 C55.84578705 -0.27277641 57.70351022 -0.46533217 59.5625 -0.625 C60.59503906 -0.74101562 61.62757812 -0.85703125 62.69140625 -0.9765625 C69.77089025 1.11301365 72.92241534 9.74307453 76.2890625 15.85546875 C77.40663474 17.96318972 78.5183987 20.07399841 79.625 22.1875 C84.12636583 30.66550308 88.6880029 39.09577349 93.4375 47.4375 C98.93251894 57.09191946 104.34284109 66.79094652 109.71264648 76.51538086 C110.29989502 77.57635986 110.88714355 78.63733887 111.4921875 79.73046875 C112.06291992 80.76606934 112.63365234 81.80166992 113.22167969 82.86865234 C114.4513404 85.0338951 115.72616567 87.17388077 117.03613281 89.29150391 C117.68678711 90.34644043 118.33744141 91.40137695 119.0078125 92.48828125 C119.60480957 93.42841064 120.20180664 94.36854004 120.81689453 95.3371582 C122.22655484 98.50991203 122.13803644 99.75981205 121 103 C119.86767578 105.05786133 119.86767578 105.05786133 118.4453125 107.08203125 C117.91856934 107.84088623 117.39182617 108.59974121 116.84912109 109.3815918 C116.28016113 110.1837915 115.71120117 110.98599121 115.125 111.8125 C114.53928223 112.65272705 113.95356445 113.4929541 113.35009766 114.35864258 C112.14729568 116.08402668 110.94139652 117.80725576 109.73242188 119.52832031 C107.25430823 123.06389282 104.81495998 126.6255504 102.375 130.1875 C101.47688721 131.4937129 100.5784506 132.79970322 99.6796875 134.10546875 C96.49826427 138.7288738 93.31893265 143.35371583 90.13989258 147.97875977 C87.76252444 151.4372532 85.38405953 154.8949851 83.00390625 158.3515625 C82.51148437 159.06699219 82.0190625 159.78242188 81.51171875 160.51953125 C80.5758765 161.87915113 79.63970231 163.23854262 78.703125 164.59765625 C76.10229993 168.37710295 73.53538957 172.17632663 71 176 C66.59331149 172.06545669 63.26534545 168.0763488 62.75 162.1015625 C62.75 159.3892067 62.82382633 156.70622338 63 154 C65.97 154 68.94 154 72 154 C72 151.36 72 148.72 72 146 C69.03 146 66.06 146 63 146 C63 142.7 63 139.4 63 136 C65.97 136 68.94 136 72 136 C72 133.36 72 130.72 72 128 C69.03 128 66.06 128 63 128 C63 125.03 63 122.06 63 119 C60.36 119 57.72 119 55 119 C55 121.97 55 124.94 55 128 C51.7 128 48.4 128 45 128 C45 124.7 45 121.4 45 118 C47.97 118 50.94 118 54 118 C54 115.36 54 112.72 54 110 C51.03 110 48.06 110 45 110 C45 106.7 45 103.4 45 100 C47.97 100 50.94 100 54 100 C54 97.36 54 94.72 54 92 C51.03 92 48.06 92 45 92 C45 89.03 45 86.06 45 83 C42.03 83 39.06 83 36 83 C36 79.7 36 76.4 36 73 C38.97 73 41.94 73 45 73 C45 69.7 45 66.4 45 63 C47.97 63 50.94 63 54 63 C54 60.36 54 57.72 54 55 C51.03 55 48.06 55 45 55 C45 52.03 45 49.06 45 46 C42.36 46 39.72 46 37 46 C37 48.97 37 51.94 37 55 C33.7 55 30.4 55 27 55 C27 52.03 27 49.06 27 46 C24.03 46 21.06 46 18 46 C18 42.7 18 39.4 18 36 C21.3 36 24.6 36 28 36 C28 38.97 28 41.94 28 45 C30.64 45 33.28 45 36 45 C36 42.03 36 39.06 36 36 C38.97 36 41.94 36 45 36 C45 33.36 45 30.72 45 28 C42.03 28 39.06 28 36 28 C36 25.03 36 22.06 36 19 C33.03 19 30.06 19 27 19 C27 16.03 27 13.06 27 10 C24.36 10 21.72 10 19 10 C19 12.97 19 15.94 19 19 C15.7 19 12.4 19 9 19 C9 16.03 9 13.06 9 10 C6.03 10 3.06 10 0 10 C0 6.7 0 3.4 0 0 Z M73 28 C73 30.64 73 33.28 73 36 C75.64 36 78.28 36 81 36 C81 33.36 81 30.72 81 28 C78.36 28 75.72 28 73 28 Z M55 46 C55 48.64 55 51.28 55 54 C57.64 54 60.28 54 63 54 C63 51.36 63 48.72 63 46 C60.36 46 57.72 46 55 46 Z " fill="#322F7F" transform="translate(18,1)"/>
<path d="M0 0 C1.92453003 0.0314209 1.92453003 0.0314209 3.88793945 0.06347656 C4.91368828 0.07196625 4.91368828 0.07196625 5.9601593 0.08062744 C8.14122969 0.1029934 10.32064824 0.15318391 12.5012207 0.20410156 C13.98101466 0.22416657 15.4608344 0.24241735 16.94067383 0.25878906 C20.5655583 0.30285682 24.18947826 0.37188334 27.8137207 0.45410156 C27.99023438 2.82470703 27.99023438 2.82470703 27.8137207 5.45410156 C25.57751511 7.09336707 23.56288816 8.31439731 21.1262207 9.57910156 C-3.3919122 23.32208355 -17.15983428 47.45853939 -32.5534668 70.11425781 C-36.24292702 75.54331314 -39.9587219 80.95390773 -43.68652344 86.35668945 C-44.09249756 86.94571045 -44.49847168 87.53473145 -44.91674805 88.14160156 C-45.29879395 88.69332031 -45.68083984 89.24503906 -46.07446289 89.81347656 C-46.83553652 90.93653646 -47.57728644 92.07286823 -48.30200195 93.21972656 C-49.21650118 94.66203212 -50.19585331 96.06283936 -51.1862793 97.45410156 C-51.8462793 97.45410156 -52.5062793 97.45410156 -53.1862793 97.45410156 C-54.58448068 95.23678221 -55.95391287 93.00872003 -57.3112793 90.76660156 C-57.70959961 90.14076172 -58.10791992 89.51492187 -58.51831055 88.87011719 C-61.32361854 84.1699959 -61.32361854 84.1699959 -60.69018555 80.86816406 C-58.89679008 77.98941498 -57.0136416 75.24695936 -54.9987793 72.51660156 C-50.45776903 66.28664519 -46.07976266 59.95667183 -41.7487793 53.57910156 C-41.1094043 52.6381665 -40.4700293 51.69723145 -39.8112793 50.7277832 C-38.54097794 48.85831658 -37.27079357 46.98877045 -36.00073242 45.11914062 C-32.91356233 40.5847557 -29.80185943 36.0673098 -26.68652344 31.55224609 C-24.15205141 27.87497405 -21.65446063 24.17623249 -19.1862793 20.45410156 C-19.5162793 20.12410156 -19.8462793 19.79410156 -20.1862793 19.45410156 C-27.57748756 29.32478863 -34.43081777 39.56428784 -41.35717773 49.76269531 C-48.15675506 59.76783953 -54.99326319 69.72601101 -62.1862793 79.45410156 C-64.69659731 76.3943148 -67.03623842 73.35712884 -69.0612793 69.95410156 C-69.51245117 69.22191406 -69.96362305 68.48972656 -70.4284668 67.73535156 C-71.1862793 65.45410156 -71.1862793 65.45410156 -70.53393555 63.00488281 C-69.08125111 60.25530908 -67.49851464 57.71345788 -65.7487793 55.14160156 C-65.03850586 54.09359375 -64.32823242 53.04558594 -63.59643555 51.96582031 C-62.79391445 50.79465467 -61.99048332 49.62411223 -61.1862793 48.45410156 C-60.75041504 47.81939941 -60.31455078 47.18469727 -59.86547852 46.53076172 C-58.00534467 43.82372689 -56.14390966 41.11760208 -54.27905273 38.41381836 C-50.18299856 32.46994717 -46.16673754 26.47611289 -42.1862793 20.45410156 C-42.5162793 20.12410156 -42.8462793 19.79410156 -43.1862793 19.45410156 C-45.25069798 22.39025713 -47.312579 25.32818588 -49.3737793 28.26660156 C-50.00002197 29.15847168 -50.62626465 30.0503418 -51.27148438 30.96923828 C-54.51815792 35.60361936 -57.73936127 40.25222241 -60.9050293 44.94238281 C-61.48873291 45.80565186 -62.07243652 46.6689209 -62.67382812 47.55834961 C-63.79045796 49.2141306 -64.90243004 50.87306411 -66.00927734 52.53540039 C-66.51499268 53.2845874 -67.02070801 54.03377441 -67.54174805 54.80566406 C-67.98156006 55.4638916 -68.42137207 56.12211914 -68.87451172 56.80029297 C-70.1862793 58.45410156 -70.1862793 58.45410156 -73.1862793 60.45410156 C-74.4200302 58.48887778 -75.65006926 56.52177906 -76.86987305 54.54785156 C-77.88979103 52.92566747 -78.96488112 51.33810561 -80.0612793 49.76660156 C-81.51203899 46.78448442 -81.10239168 45.60440638 -80.1862793 42.45410156 C-78.8659668 40.33300781 -78.8659668 40.33300781 -77.0612793 38.01660156 C-74.0893064 34.09165909 -71.26374161 30.11617464 -68.5300293 26.02050781 C-67.8779248 25.045896 -67.22582031 24.07128418 -66.55395508 23.06713867 C-65.24363092 21.1022946 -63.93971917 19.13315634 -62.64282227 17.15942383 C-57.55568915 9.56856075 -52.52015289 3.41176793 -43.1862793 1.45410156 C-39.3089923 1.34130776 -36.15206045 1.70907039 -32.9987793 4.14160156 C-32.4006543 4.57472656 -31.8025293 5.00785156 -31.1862793 5.45410156 C-28.71000831 4.81488192 -28.71000831 4.81488192 -26.1862793 3.45410156 C-19.93869275 0.7562801 -14.44257948 1.32436476 -8.1237793 3.51660156 C-7.4844043 3.82597656 -6.8450293 4.13535156 -6.1862793 4.45410156 C-5.66263794 3.47618652 -5.66263794 3.47618652 -5.12841797 2.47851562 C-3.1862793 0.45410156 -3.1862793 0.45410156 0 0 Z " fill="#DE1D1B" transform="translate(195.186279296875,-0.4541015625)"/>
<path d="M0 0 C2.97 0 5.94 0 9 0 C9 2.97 9 5.94 9 9 C11.97 9 14.94 9 18 9 C18 11.97 18 14.94 18 18 C20.97 18 23.94 18 27 18 C27 20.97 27 23.94 27 27 C24.03 27 21.06 27 18 27 C18 29.97 18 32.94 18 36 C15.03 36 12.06 36 9 36 C9 38.97 9 41.94 9 45 C11.97 45 14.94 45 18 45 C18 47.97 18 50.94 18 54 C15.03 54 12.06 54 9 54 C9 56.97 9 59.94 9 63 C11.97 63 14.94 63 18 63 C18 65.97 18 68.94 18 72 C15.03 72 12.06 72 9 72 C9 74.97 9 77.94 9 81 C6.03 81 3.06 81 0 81 C0 78.03 0 75.06 0 72 C-3.3 72 -6.6 72 -10 72 C-10 66.39 -10 60.78 -10 55 C-12.97 55 -15.94 55 -19 55 C-19 52.03 -19 49.06 -19 46 C-21.97 46 -24.94 46 -28 46 C-28 42.7 -28 39.4 -28 36 C-22.06 36 -16.12 36 -10 36 C-10 33.03 -10 30.06 -10 27 C-7.03 27 -4.06 27 -1 27 C-1 24.03 -1 21.06 -1 18 C1.97 18 4.94 18 8 18 C8 15.03 8 12.06 8 9 C5.36 9 2.72 9 0 9 C0 6.03 0 3.06 0 0 Z " fill="#EBEBF2" transform="translate(82,38)"/>
<path d="M0 0 C3.3 0 6.6 0 10 0 C10 2.97 10 5.94 10 9 C12.97 9 15.94 9 19 9 C19 11.97 19 14.94 19 18 C16.03 18 13.06 18 10 18 C10 23.94 10 29.88 10 36 C12.64 36 15.28 36 18 36 C18 38.97 18 41.94 18 45 C15.03 45 12.06 45 9 45 C9 47.97 9 50.94 9 54 C6.03 54 3.06 54 0 54 C0 56.97 0 59.94 0 63 C-2.97 63 -5.94 63 -9 63 C-9 59.7 -9 56.4 -9 53 C-6.03 53 -3.06 53 0 53 C0 50.36 0 47.72 0 45 C-2.97 45 -5.94 45 -9 45 C-9 42.03 -9 39.06 -9 36 C-11.64 36 -14.28 36 -17 36 C-17 38.97 -17 41.94 -17 45 C-20.3 45 -23.6 45 -27 45 C-27 42.03 -27 39.06 -27 36 C-29.97 36 -32.94 36 -36 36 C-36 32.7 -36 29.4 -36 26 C-32.7 26 -29.4 26 -26 26 C-26 28.97 -26 31.94 -26 35 C-23.36 35 -20.72 35 -18 35 C-18 32.03 -18 29.06 -18 26 C-15.03 26 -12.06 26 -9 26 C-9 20.39 -9 14.78 -9 9 C-6.03 9 -3.06 9 0 9 C0 6.03 0 3.06 0 0 Z M1 36 C1 38.64 1 41.28 1 44 C3.64 44 6.28 44 9 44 C9 41.36 9 38.72 9 36 C6.36 36 3.72 36 1 36 Z " fill="#E8D40C" transform="translate(72,11)"/>
<path d="M0 0 C2.97 0 5.94 0 9 0 C9 2.97 9 5.94 9 9 C11.97 9 14.94 9 18 9 C18 11.97 18 14.94 18 18 C20.97 18 23.94 18 27 18 C27 20.97 27 23.94 27 27 C24.03 27 21.06 27 18 27 C18 29.97 18 32.94 18 36 C15.03 36 12.06 36 9 36 C9 38.97 9 41.94 9 45 C-0.24 45 -9.48 45 -19 45 C-19 42.03 -19 39.06 -19 36 C-16.03 36 -13.06 36 -10 36 C-10 33.03 -10 30.06 -10 27 C-7.03 27 -4.06 27 -1 27 C-1 24.03 -1 21.06 -1 18 C1.97 18 4.94 18 8 18 C8 15.03 8 12.06 8 9 C5.36 9 2.72 9 0 9 C0 6.03 0 3.06 0 0 Z " fill="#E8D40B" transform="translate(82,38)"/>
<path d="M0 0 C3.3 0 6.6 0 10 0 C10 2.97 10 5.94 10 9 C12.64 9 15.28 9 18 9 C18 6.03 18 3.06 18 0 C21.3 0 24.6 0 28 0 C28 2.97 28 5.94 28 9 C30.64 9 33.28 9 36 9 C36 6.03 36 3.06 36 0 C39.3 0 42.6 0 46 0 C46 2.97 46 5.94 46 9 C51.94 9 57.88 9 64 9 C64 9.33 64 9.66 64 10 C60.7 10 57.4 10 54 10 C54 12.97 54 15.94 54 19 C51.03 19 48.06 19 45 19 C45 21.97 45 24.94 45 28 C42.03 28 39.06 28 36 28 C36 25.03 36 22.06 36 19 C33.03 19 30.06 19 27 19 C27 16.03 27 13.06 27 10 C24.36 10 21.72 10 19 10 C19 12.97 19 15.94 19 19 C15.7 19 12.4 19 9 19 C9 16.03 9 13.06 9 10 C6.03 10 3.06 10 0 10 C0 6.7 0 3.4 0 0 Z " fill="#322F7F" transform="translate(18,1)"/>
<path d="M0 0 C2.97 0 5.94 0 9 0 C9 2.97 9 5.94 9 9 C12.3 9 15.6 9 19 9 C19 11.97 19 14.94 19 18 C24.94 18 30.88 18 37 18 C37 21.3 37 24.6 37 28 C30.73 28 24.46 28 18 28 C18 25.03 18 22.06 18 19 C15.36 19 12.72 19 10 19 C10 21.97 10 24.94 10 28 C6.7 28 3.4 28 0 28 C0 24.7 0 21.4 0 18 C2.97 18 5.94 18 9 18 C9 15.36 9 12.72 9 10 C6.03 10 3.06 10 0 10 C0 6.7 0 3.4 0 0 Z " fill="#4B477C" transform="translate(63,101)"/>
<path d="M0 0 C2.97 0 5.94 0 9 0 C9 2.97 9 5.94 9 9 C6.03 9 3.06 9 0 9 C0 11.97 0 14.94 0 18 C-2.64 18 -5.28 18 -8 18 C-8 20.97 -8 23.94 -8 27 C-11.3 27 -14.6 27 -18 27 C-18 24.03 -18 21.06 -18 18 C-20.97 18 -23.94 18 -27 18 C-27 14.7 -27 11.4 -27 8 C-23.7 8 -20.4 8 -17 8 C-17 10.97 -17 13.94 -17 17 C-14.36 17 -11.72 17 -9 17 C-9 14.03 -9 11.06 -9 8 C-6.03 8 -3.06 8 0 8 C0 5.36 0 2.72 0 0 Z " fill="#33307E" transform="translate(63,29)"/>
<path d="M0 0 C3.3 0 6.6 0 10 0 C10 2.97 10 5.94 10 9 C15.94 9 21.88 9 28 9 C28 9.33 28 9.66 28 10 C24.7 10 21.4 10 18 10 C18 12.97 18 15.94 18 19 C15.03 19 12.06 19 9 19 C9 21.97 9 24.94 9 28 C6.03 28 3.06 28 0 28 C0 18.76 0 9.52 0 0 Z " fill="#48447B" transform="translate(54,1)"/>
<path d="M0 0 C0.33 0 0.66 0 1 0 C1 5.94 1 11.88 1 18 C3.97 18 6.94 18 10 18 C10 20.97 10 23.94 10 27 C0.76 27 -8.48 27 -18 27 C-18 24.03 -18 21.06 -18 18 C-15.03 18 -12.06 18 -9 18 C-9 15.03 -9 12.06 -9 9 C-6.03 9 -3.06 9 0 9 C0 6.03 0 3.06 0 0 Z " fill="#E5D10E" transform="translate(81,56)"/>
<path d="M0 0 C3.3 0 6.6 0 10 0 C10 2.64 10 5.28 10 8 C12.64 8 15.28 8 18 8 C18 5.36 18 2.72 18 0 C20.97 0 23.94 0 27 0 C27 2.97 27 5.94 27 9 C24.03 9 21.06 9 18 9 C18 11.97 18 14.94 18 18 C15.03 18 12.06 18 9 18 C9 20.97 9 23.94 9 27 C6.03 27 3.06 27 0 27 C0 23.7 0 20.4 0 17 C2.97 17 5.94 17 9 17 C9 14.36 9 11.72 9 9 C6.03 9 3.06 9 0 9 C0 6.03 0 3.06 0 0 Z " fill="#34317D" transform="translate(63,47)"/>
<path d="M0 0 C3.3 0 6.6 0 10 0 C10 2.97 10 5.94 10 9 C12.97 9 15.94 9 19 9 C19 11.97 19 14.94 19 18 C15.7 18 12.4 18 9 18 C9 15.03 9 12.06 9 9 C6.36 9 3.72 9 1 9 C1 11.97 1 14.94 1 18 C-2.3 18 -5.6 18 -9 18 C-9 15.03 -9 12.06 -9 9 C-6.03 9 -3.06 9 0 9 C0 6.03 0 3.06 0 0 Z " fill="#EBEBF2" transform="translate(72,11)"/>
<path d="M0 0 C2.97 0 5.94 0 9 0 C9 2.97 9 5.94 9 9 C11.97 9 14.94 9 18 9 C18 11.97 18 14.94 18 18 C20.97 18 23.94 18 27 18 C27 20.97 27 23.94 27 27 C24.03 27 21.06 27 18 27 C18 24.36 18 21.72 18 19 C15.03 19 12.06 19 9 19 C9 16.03 9 13.06 9 10 C6.03 10 3.06 10 0 10 C0 6.7 0 3.4 0 0 Z " fill="#35327F" transform="translate(54,74)"/>
<path d="M0 0 C3.3 0 6.6 0 10 0 C10 2.97 10 5.94 10 9 C12.64 9 15.28 9 18 9 C18 11.97 18 14.94 18 18 C15.36 18 12.72 18 10 18 C10 20.97 10 23.94 10 27 C6.7 27 3.4 27 0 27 C0 24.03 0 21.06 0 18 C2.97 18 5.94 18 9 18 C9 15.03 9 12.06 9 9 C6.03 9 3.06 9 0 9 C0 6.03 0 3.06 0 0 Z " fill="#F1F1F6" transform="translate(72,83)"/>
<path d="M0 0 C2.97 0 5.94 0 9 0 C9 2.97 9 5.94 9 9 C6.36 9 3.72 9 1 9 C1 11.97 1 14.94 1 18 C-2.3 18 -5.6 18 -9 18 C-9 14.7 -9 11.4 -9 8 C-6.03 8 -3.06 8 0 8 C0 5.36 0 2.72 0 0 Z " fill="#322F7F" transform="translate(72,111)"/>
<path d="M0 0 C3.3 0 6.6 0 10 0 C10 3.3 10 6.6 10 10 C6.7 10 3.4 10 0 10 C0 6.7 0 3.4 0 0 Z " fill="#322F7F" transform="translate(0,1)"/>
<path d="M0 0 C3.3 0 6.6 0 10 0 C10 2.97 10 5.94 10 9 C6.7 9 3.4 9 0 9 C0 6.03 0 3.06 0 0 Z " fill="#F6E003" transform="translate(72,101)"/>
<path d="M0 0 C3.3 0 6.6 0 10 0 C10 2.97 10 5.94 10 9 C6.7 9 3.4 9 0 9 C0 6.03 0 3.06 0 0 Z " fill="#F3F3F7" transform="translate(99,56)"/>
<path d="M0 0 C3.3 0 6.6 0 10 0 C10 2.97 10 5.94 10 9 C6.7 9 3.4 9 0 9 C0 6.03 0 3.06 0 0 Z " fill="#322F7F" transform="translate(54,1)"/>
<path d="M0 0 C2.97 0 5.94 0 9 0 C9 2.97 9 5.94 9 9 C6.03 9 3.06 9 0 9 C0 6.03 0 3.06 0 0 Z " fill="#322F7F" transform="translate(81,120)"/>
<path d="M0 0 C2.97 0 5.94 0 9 0 C9 2.97 9 5.94 9 9 C6.03 9 3.06 9 0 9 C0 6.03 0 3.06 0 0 Z " fill="#FBFBFC" transform="translate(91,119)"/>
<path d="M0 0 C2.97 0 5.94 0 9 0 C9 2.97 9 5.94 9 9 C6.03 9 3.06 9 0 9 C0 6.03 0 3.06 0 0 Z " fill="#F8E302" transform="translate(82,110)"/>
<path d="M0 0 C2.97 0 5.94 0 9 0 C9 2.97 9 5.94 9 9 C6.03 9 3.06 9 0 9 C0 6.03 0 3.06 0 0 Z " fill="#FBFBFC" transform="translate(91,101)"/>
<path d="M0 0 C2.97 0 5.94 0 9 0 C9 2.97 9 5.94 9 9 C6.03 9 3.06 9 0 9 C0 6.03 0 3.06 0 0 Z " fill="#F8E302" transform="translate(82,74)"/>
<path d="M0 0 C2.97 0 5.94 0 9 0 C9 2.97 9 5.94 9 9 C6.03 9 3.06 9 0 9 C0 6.03 0 3.06 0 0 Z " fill="#F8E302" transform="translate(63,74)"/>
<path d="M0 0 C2.97 0 5.94 0 9 0 C9 2.97 9 5.94 9 9 C6.03 9 3.06 9 0 9 C0 6.03 0 3.06 0 0 Z " fill="#F8E302" transform="translate(91,65)"/>
<path d="M0 0 C2.97 0 5.94 0 9 0 C9 2.97 9 5.94 9 9 C6.03 9 3.06 9 0 9 C0 6.03 0 3.06 0 0 Z " fill="#F8E302" transform="translate(91,47)"/>
<path d="M0 0 C2.97 0 5.94 0 9 0 C9 2.97 9 5.94 9 9 C6.03 9 3.06 9 0 9 C0 6.03 0 3.06 0 0 Z " fill="#F8E302" transform="translate(63,38)"/>
<path d="M0 0 C2.97 0 5.94 0 9 0 C9 2.97 9 5.94 9 9 C6.03 9 3.06 9 0 9 C0 6.03 0 3.06 0 0 Z " fill="#FBFBFC" transform="translate(82,20)"/>
<path d="M0 0 C2.97 0 5.94 0 9 0 C9 2.97 9 5.94 9 9 C6.03 9 3.06 9 0 9 C0 6.03 0 3.06 0 0 Z " fill="#FBFBFC" transform="translate(63,20)"/>
<path d="M0 0 C2.97 0 5.94 0 9 0 C9 2.97 9 5.94 9 9 C6.03 9 3.06 9 0 9 C0 6.03 0 3.06 0 0 Z " fill="#322F7F" transform="translate(54,20)"/>
<path d="M0 0 C2.97 0 5.94 0 9 0 C9 2.97 9 5.94 9 9 C6.03 9 3.06 9 0 9 C0 6.03 0 3.06 0 0 Z " fill="#F8E302" transform="translate(54,11)"/>
<path d="M0 0 C2.64 0 5.28 0 8 0 C8 2.97 8 5.94 8 9 C5.36 9 2.72 9 0 9 C0 6.03 0 3.06 0 0 Z " fill="#373482" transform="translate(82,101)"/>
<path d="M0 0 C2.64 0 5.28 0 8 0 C8 2.97 8 5.94 8 9 C5.36 9 2.72 9 0 9 C0 6.03 0 3.06 0 0 Z " fill="#FFFFFF" transform="translate(82,92)"/>
<path d="M0 0 C2.64 0 5.28 0 8 0 C8 2.97 8 5.94 8 9 C5.36 9 2.72 9 0 9 C0 6.03 0 3.06 0 0 Z " fill="#37347B" transform="translate(82,83)"/>
<path d="M0 0 C2.64 0 5.28 0 8 0 C8 2.97 8 5.94 8 9 C5.36 9 2.72 9 0 9 C0 6.03 0 3.06 0 0 Z " fill="#37347B" transform="translate(73,74)"/>
<path d="M0 0 C2.64 0 5.28 0 8 0 C8 2.97 8 5.94 8 9 C5.36 9 2.72 9 0 9 C0 6.03 0 3.06 0 0 Z " fill="#322F7F" transform="translate(82,65)"/>
<path d="M0 0 C2.64 0 5.28 0 8 0 C8 2.97 8 5.94 8 9 C5.36 9 2.72 9 0 9 C0 6.03 0 3.06 0 0 Z " fill="#37347B" transform="translate(91,56)"/>
<path d="M0 0 C2.64 0 5.28 0 8 0 C8 2.97 8 5.94 8 9 C5.36 9 2.72 9 0 9 C0 6.03 0 3.06 0 0 Z " fill="#FCE600" transform="translate(82,56)"/>
<path d="M0 0 C2.64 0 5.28 0 8 0 C8 2.97 8 5.94 8 9 C5.36 9 2.72 9 0 9 C0 6.03 0 3.06 0 0 Z " fill="#322F7F" transform="translate(73,38)"/>
<path d="M0 0 C2.64 0 5.28 0 8 0 C8 2.97 8 5.94 8 9 C5.36 9 2.72 9 0 9 C0 6.03 0 3.06 0 0 Z " fill="#37347B" transform="translate(73,20)"/>
</svg>
